<?xml version="1.0" encoding="utf-8" standalone="no"?>
<!DOCTYPE svg PUBLIC "-//W3C//DTD SVG 1.1//EN"
  "http://www.w3.org/Graphics/SVG/1.1/DTD/svg11.dtd">
<!-- Created with matplotlib (http://matplotlib.org/) -->
<svg height="320pt" version="1.1" viewBox="0 0 320 320" width="320pt" xmlns="http://www.w3.org/2000/svg" xmlns:xlink="http://www.w3.org/1999/xlink">
 <defs>
  <style type="text/css">
*{stroke-linecap:butt;stroke-linejoin:round;}
  </style>
 </defs>
 <g id="figure_1">
  <g id="patch_1">
   <path d="M 0 320 
L 320 320 
L 320 0 
L 0 0 
z
" style="fill:#ffffff;"/>
  </g>
  <g id="axes_1">
   <g id="patch_2">
    <path d="M 48.445312 292.521875 
L 305.7 292.521875 
L 305.7 25.918125 
L 48.445312 25.918125 
z
" style="fill:#ffffff;"/>
   </g>
   <g id="PolyCollection_1">
    <path clip-path="url(#p1d57a031b0)" d="M 65.577496 130.002717 
L 65.577496 207.143527 
L 71.016284 208.987153 
L 76.455072 214.463653 
L 81.893861 216.705271 
L 87.332649 234.831634 
L 92.771437 235.63815 
L 98.210226 238.266317 
L 103.649014 239.400127 
L 109.087802 249.559019 
L 114.526591 250.008318 
L 119.965379 251.61122 
L 125.404167 252.481452 
L 130.842956 258.970639 
L 136.281744 259.341293 
L 141.720532 260.610239 
L 147.15932 261.422476 
L 152.598109 266.533732 
L 158.036897 266.650154 
L 163.475685 267.525463 
L 168.914474 268.146913 
L 174.353262 271.527583 
L 179.79205 271.581181 
L 185.230839 272.212247 
L 190.669627 272.692019 
L 196.108415 275.239397 
L 201.547204 275.255072 
L 206.985992 275.67988 
L 212.42478 276.052096 
L 217.863569 277.672233 
L 223.302357 277.676335 
L 228.741145 277.936483 
L 234.179934 278.139831 
L 239.618722 279.230091 
L 245.05751 279.235087 
L 250.496299 279.420786 
L 255.935087 279.565488 
L 261.373875 280.108717 
L 266.812664 280.110658 
L 272.251452 280.185849 
L 277.69024 280.252474 
L 283.129028 280.391578 
L 288.567817 280.391967 
L 294.006605 280.403523 
L 294.006605 56.742721 
L 294.006605 56.742721 
L 288.567817 56.754276 
L 283.129028 56.754666 
L 277.69024 56.89377 
L 272.251452 56.960394 
L 266.812664 57.035585 
L 261.373875 57.037526 
L 255.935087 57.580756 
L 250.496299 57.725457 
L 245.05751 57.911157 
L 239.618722 57.916152 
L 234.179934 59.006413 
L 228.741145 59.209761 
L 223.302357 59.469909 
L 217.863569 59.47401 
L 212.42478 61.094147 
L 206.985992 61.466363 
L 201.547204 61.891172 
L 196.108415 61.906847 
L 190.669627 64.454225 
L 185.230839 64.933997 
L 179.79205 65.565063 
L 174.353262 65.618661 
L 168.914474 68.99933 
L 163.475685 69.620781 
L 158.036897 70.496089 
L 152.598109 70.612512 
L 147.15932 75.723767 
L 141.720532 76.536004 
L 136.281744 77.804951 
L 130.842956 78.175604 
L 125.404167 84.664791 
L 119.965379 85.535024 
L 114.526591 87.137925 
L 109.087802 87.587224 
L 103.649014 97.746116 
L 98.210226 98.879926 
L 92.771437 101.508093 
L 87.332649 102.31461 
L 81.893861 120.440972 
L 76.455072 122.682591 
L 71.016284 128.15909 
L 65.577496 130.002717 
z
" style="fill:#1f77b4;fill-opacity:0.25;"/>
   </g>
   <g id="matplotlib.axis_1">
    <g id="xtick_1">
     <g id="line2d_1">
      <defs>
       <path d="M 0 0 
L 0 3.5 
" id="m0b8760fe21" style="stroke:#000000;stroke-width:0.8;"/>
      </defs>
      <g>
       <use style="stroke:#000000;stroke-width:0.8;" x="60.138707" xlink:href="#m0b8760fe21" y="292.521875"/>
      </g>
     </g>
     <g id="text_1">
      <!-- 0 -->
      <defs>
       <path d="M 31.78125 66.40625 
Q 24.171875 66.40625 20.328125 58.90625 
Q 16.5 51.421875 16.5 36.375 
Q 16.5 21.390625 20.328125 13.890625 
Q 24.171875 6.390625 31.78125 6.390625 
Q 39.453125 6.390625 43.28125 13.890625 
Q 47.125 21.390625 47.125 36.375 
Q 47.125 51.421875 43.28125 58.90625 
Q 39.453125 66.40625 31.78125 66.40625 
M 31.78125 74.21875 
Q 44.046875 74.21875 50.515625 64.515625 
Q 56.984375 54.828125 56.984375 36.375 
Q 56.984375 17.96875 50.515625 8.265625 
Q 44.046875 -1.421875 31.78125 -1.421875 
Q 19.53125 -1.421875 13.0625 8.265625 
Q 6.59375 17.96875 6.59375 36.375 
Q 6.59375 54.828125 13.0625 64.515625 
Q 19.53125 74.21875 31.78125 74.21875 
" id="DejaVuSans-30"/>
      </defs>
      <g transform="translate(56.957457 307.120312)scale(0.1 -0.1)">
       <use xlink:href="#DejaVuSans-30"/>
      </g>
     </g>
    </g>
    <g id="xtick_2">
     <g id="line2d_2">
      <g>
       <use style="stroke:#000000;stroke-width:0.8;" x="114.526591" xlink:href="#m0b8760fe21" y="292.521875"/>
      </g>
     </g>
     <g id="text_2">
      <!-- 10 -->
      <defs>
       <path d="M 12.40625 8.296875 
L 28.515625 8.296875 
L 28.515625 63.921875 
L 10.984375 60.40625 
L 10.984375 69.390625 
L 28.421875 72.90625 
L 38.28125 72.90625 
L 38.28125 8.296875 
L 54.390625 8.296875 
L 54.390625 0 
L 12.40625 0 
z
" id="DejaVuSans-31"/>
      </defs>
      <g transform="translate(108.164091 307.120312)scale(0.1 -0.1)">
       <use xlink:href="#DejaVuSans-31"/>
       <use x="63.623047" xlink:href="#DejaVuSans-30"/>
      </g>
     </g>
    </g>
    <g id="xtick_3">
     <g id="line2d_3">
      <g>
       <use style="stroke:#000000;stroke-width:0.8;" x="168.914474" xlink:href="#m0b8760fe21" y="292.521875"/>
      </g>
     </g>
     <g id="text_3">
      <!-- 20 -->
      <defs>
       <path d="M 19.1875 8.296875 
L 53.609375 8.296875 
L 53.609375 0 
L 7.328125 0 
L 7.328125 8.296875 
Q 12.9375 14.109375 22.625 23.890625 
Q 32.328125 33.6875 34.8125 36.53125 
Q 39.546875 41.84375 41.421875 45.53125 
Q 43.3125 49.21875 43.3125 52.78125 
Q 43.3125 58.59375 39.234375 62.25 
Q 35.15625 65.921875 28.609375 65.921875 
Q 23.96875 65.921875 18.8125 64.3125 
Q 13.671875 62.703125 7.8125 59.421875 
L 7.8125 69.390625 
Q 13.765625 71.78125 18.9375 73 
Q 24.125 74.21875 28.421875 74.21875 
Q 39.75 74.21875 46.484375 68.546875 
Q 53.21875 62.890625 53.21875 53.421875 
Q 53.21875 48.921875 51.53125 44.890625 
Q 49.859375 40.875 45.40625 35.40625 
Q 44.1875 33.984375 37.640625 27.21875 
Q 31.109375 20.453125 19.1875 8.296875 
" id="DejaVuSans-32"/>
      </defs>
      <g transform="translate(162.551974 307.120312)scale(0.1 -0.1)">
       <use xlink:href="#DejaVuSans-32"/>
       <use x="63.623047" xlink:href="#DejaVuSans-30"/>
      </g>
     </g>
    </g>
    <g id="xtick_4">
     <g id="line2d_4">
      <g>
       <use style="stroke:#000000;stroke-width:0.8;" x="223.302357" xlink:href="#m0b8760fe21" y="292.521875"/>
      </g>
     </g>
     <g id="text_4">
      <!-- 30 -->
      <defs>
       <path d="M 40.578125 39.3125 
Q 47.65625 37.796875 51.625 33 
Q 55.609375 28.21875 55.609375 21.1875 
Q 55.609375 10.40625 48.1875 4.484375 
Q 40.765625 -1.421875 27.09375 -1.421875 
Q 22.515625 -1.421875 17.65625 -0.515625 
Q 12.796875 0.390625 7.625 2.203125 
L 7.625 11.71875 
Q 11.71875 9.328125 16.59375 8.109375 
Q 21.484375 6.890625 26.8125 6.890625 
Q 36.078125 6.890625 40.9375 10.546875 
Q 45.796875 14.203125 45.796875 21.1875 
Q 45.796875 27.640625 41.28125 31.265625 
Q 36.765625 34.90625 28.71875 34.90625 
L 20.21875 34.90625 
L 20.21875 43.015625 
L 29.109375 43.015625 
Q 36.375 43.015625 40.234375 45.921875 
Q 44.09375 48.828125 44.09375 54.296875 
Q 44.09375 59.90625 40.109375 62.90625 
Q 36.140625 65.921875 28.71875 65.921875 
Q 24.65625 65.921875 20.015625 65.03125 
Q 15.375 64.15625 9.8125 62.3125 
L 9.8125 71.09375 
Q 15.4375 72.65625 20.34375 73.4375 
Q 25.25 74.21875 29.59375 74.21875 
Q 40.828125 74.21875 47.359375 69.109375 
Q 53.90625 64.015625 53.90625 55.328125 
Q 53.90625 49.265625 50.4375 45.09375 
Q 46.96875 40.921875 40.578125 39.3125 
" id="DejaVuSans-33"/>
      </defs>
      <g transform="translate(216.939857 307.120312)scale(0.1 -0.1)">
       <use xlink:href="#DejaVuSans-33"/>
       <use x="63.623047" xlink:href="#DejaVuSans-30"/>
      </g>
     </g>
    </g>
    <g id="xtick_5">
     <g id="line2d_5">
      <g>
       <use style="stroke:#000000;stroke-width:0.8;" x="277.69024" xlink:href="#m0b8760fe21" y="292.521875"/>
      </g>
     </g>
     <g id="text_5">
      <!-- 40 -->
      <defs>
       <path d="M 37.796875 64.3125 
L 12.890625 25.390625 
L 37.796875 25.390625 
z
M 35.203125 72.90625 
L 47.609375 72.90625 
L 47.609375 25.390625 
L 58.015625 25.390625 
L 58.015625 17.1875 
L 47.609375 17.1875 
L 47.609375 0 
L 37.796875 0 
L 37.796875 17.1875 
L 4.890625 17.1875 
L 4.890625 26.703125 
z
" id="DejaVuSans-34"/>
      </defs>
      <g transform="translate(271.32774 307.120312)scale(0.1 -0.1)">
       <use xlink:href="#DejaVuSans-34"/>
       <use x="63.623047" xlink:href="#DejaVuSans-30"/>
      </g>
     </g>
    </g>
   </g>
   <g id="matplotlib.axis_2">
    <g id="ytick_1">
     <g id="line2d_6">
      <defs>
       <path d="M 0 0 
L -3.5 0 
" id="m10c8fabaa5" style="stroke:#000000;stroke-width:0.8;"/>
      </defs>
      <g>
       <use style="stroke:#000000;stroke-width:0.8;" x="48.445312" xlink:href="#m10c8fabaa5" y="266.475605"/>
      </g>
     </g>
     <g id="text_6">
      <!-- −0.75 -->
      <defs>
       <path d="M 10.59375 35.5 
L 73.1875 35.5 
L 73.1875 27.203125 
L 10.59375 27.203125 
z
" id="DejaVuSans-2212"/>
       <path d="M 10.6875 12.40625 
L 21 12.40625 
L 21 0 
L 10.6875 0 
z
" id="DejaVuSans-2e"/>
       <path d="M 8.203125 72.90625 
L 55.078125 72.90625 
L 55.078125 68.703125 
L 28.609375 0 
L 18.3125 0 
L 43.21875 64.59375 
L 8.203125 64.59375 
z
" id="DejaVuSans-37"/>
       <path d="M 10.796875 72.90625 
L 49.515625 72.90625 
L 49.515625 64.59375 
L 19.828125 64.59375 
L 19.828125 46.734375 
Q 21.96875 47.46875 24.109375 47.828125 
Q 26.265625 48.1875 28.421875 48.1875 
Q 40.625 48.1875 47.75 41.5 
Q 54.890625 34.8125 54.890625 23.390625 
Q 54.890625 11.625 47.5625 5.09375 
Q 40.234375 -1.421875 26.90625 -1.421875 
Q 22.3125 -1.421875 17.546875 -0.640625 
Q 12.796875 0.140625 7.71875 1.703125 
L 7.71875 11.625 
Q 12.109375 9.234375 16.796875 8.0625 
Q 21.484375 6.890625 26.703125 6.890625 
Q 35.15625 6.890625 40.078125 11.328125 
Q 45.015625 15.765625 45.015625 23.390625 
Q 45.015625 31 40.078125 35.4375 
Q 35.15625 39.890625 26.703125 39.890625 
Q 22.75 39.890625 18.8125 39.015625 
Q 14.890625 38.140625 10.796875 36.28125 
z
" id="DejaVuSans-35"/>
      </defs>
      <g transform="translate(10.8 270.274824)scale(0.1 -0.1)">
       <use xlink:href="#DejaVuSans-2212"/>
       <use x="83.789062" xlink:href="#DejaVuSans-30"/>
       <use x="147.412109" xlink:href="#DejaVuSans-2e"/>
       <use x="179.199219" xlink:href="#DejaVuSans-37"/>
       <use x="242.822266" xlink:href="#DejaVuSans-35"/>
      </g>
     </g>
    </g>
    <g id="ytick_2">
     <g id="line2d_7">
      <g>
       <use style="stroke:#000000;stroke-width:0.8;" x="48.445312" xlink:href="#m10c8fabaa5" y="233.841444"/>
      </g>
     </g>
     <g id="text_7">
      <!-- −0.50 -->
      <g transform="translate(10.8 237.640663)scale(0.1 -0.1)">
       <use xlink:href="#DejaVuSans-2212"/>
       <use x="83.789062" xlink:href="#DejaVuSans-30"/>
       <use x="147.412109" xlink:href="#DejaVuSans-2e"/>
       <use x="179.199219" xlink:href="#DejaVuSans-35"/>
       <use x="242.822266" xlink:href="#DejaVuSans-30"/>
      </g>
     </g>
    </g>
    <g id="ytick_3">
     <g id="line2d_8">
      <g>
       <use style="stroke:#000000;stroke-width:0.8;" x="48.445312" xlink:href="#m10c8fabaa5" y="201.207283"/>
      </g>
     </g>
     <g id="text_8">
      <!-- −0.25 -->
      <g transform="translate(10.8 205.006502)scale(0.1 -0.1)">
       <use xlink:href="#DejaVuSans-2212"/>
       <use x="83.789062" xlink:href="#DejaVuSans-30"/>
       <use x="147.412109" xlink:href="#DejaVuSans-2e"/>
       <use x="179.199219" xlink:href="#DejaVuSans-32"/>
       <use x="242.822266" xlink:href="#DejaVuSans-35"/>
      </g>
     </g>
    </g>
    <g id="ytick_4">
     <g id="line2d_9">
      <g>
       <use style="stroke:#000000;stroke-width:0.8;" x="48.445312" xlink:href="#m10c8fabaa5" y="168.573122"/>
      </g>
     </g>
     <g id="text_9">
      <!-- 0.00 -->
      <g transform="translate(19.179688 172.372341)scale(0.1 -0.1)">
       <use xlink:href="#DejaVuSans-30"/>
       <use x="63.623047" xlink:href="#DejaVuSans-2e"/>
       <use x="95.410156" xlink:href="#DejaVuSans-30"/>
       <use x="159.033203" xlink:href="#DejaVuSans-30"/>
      </g>
     </g>
    </g>
    <g id="ytick_5">
     <g id="line2d_10">
      <g>
       <use style="stroke:#000000;stroke-width:0.8;" x="48.445312" xlink:href="#m10c8fabaa5" y="135.938961"/>
      </g>
     </g>
     <g id="text_10">
      <!-- 0.25 -->
      <g transform="translate(19.179688 139.738179)scale(0.1 -0.1)">
       <use xlink:href="#DejaVuSans-30"/>
       <use x="63.623047" xlink:href="#DejaVuSans-2e"/>
       <use x="95.410156" xlink:href="#DejaVuSans-32"/>
       <use x="159.033203" xlink:href="#DejaVuSans-35"/>
      </g>
     </g>
    </g>
    <g id="ytick_6">
     <g id="line2d_11">
      <g>
       <use style="stroke:#000000;stroke-width:0.8;" x="48.445312" xlink:href="#m10c8fabaa5" y="103.3048"/>
      </g>
     </g>
     <g id="text_11">
      <!-- 0.50 -->
      <g transform="translate(19.179688 107.104018)scale(0.1 -0.1)">
       <use xlink:href="#DejaVuSans-30"/>
       <use x="63.623047" xlink:href="#DejaVuSans-2e"/>
       <use x="95.410156" xlink:href="#DejaVuSans-35"/>
       <use x="159.033203" xlink:href="#DejaVuSans-30"/>
      </g>
     </g>
    </g>
    <g id="ytick_7">
     <g id="line2d_12">
      <g>
       <use style="stroke:#000000;stroke-width:0.8;" x="48.445312" xlink:href="#m10c8fabaa5" y="70.670638"/>
      </g>
     </g>
     <g id="text_12">
      <!-- 0.75 -->
      <g transform="translate(19.179688 74.469857)scale(0.1 -0.1)">
       <use xlink:href="#DejaVuSans-30"/>
       <use x="63.623047" xlink:href="#DejaVuSans-2e"/>
       <use x="95.410156" xlink:href="#DejaVuSans-37"/>
       <use x="159.033203" xlink:href="#DejaVuSans-35"/>
      </g>
     </g>
    </g>
    <g id="ytick_8">
     <g id="line2d_13">
      <g>
       <use style="stroke:#000000;stroke-width:0.8;" x="48.445312" xlink:href="#m10c8fabaa5" y="38.036477"/>
      </g>
     </g>
     <g id="text_13">
      <!-- 1.00 -->
      <g transform="translate(19.179688 41.835696)scale(0.1 -0.1)">
       <use xlink:href="#DejaVuSans-31"/>
       <use x="63.623047" xlink:href="#DejaVuSans-2e"/>
       <use x="95.410156" xlink:href="#DejaVuSans-30"/>
       <use x="159.033203" xlink:href="#DejaVuSans-30"/>
      </g>
     </g>
    </g>
   </g>
   <g id="LineCollection_1">
    <path clip-path="url(#p1d57a031b0)" d="M 60.138707 168.573122 
L 60.138707 38.036477 
" style="fill:none;stroke:#000000;stroke-width:1.5;"/>
    <path clip-path="url(#p1d57a031b0)" d="M 65.577496 168.573122 
L 65.577496 197.451347 
" style="fill:none;stroke:#000000;stroke-width:1.5;"/>
    <path clip-path="url(#p1d57a031b0)" d="M 71.016284 168.573122 
L 71.016284 220.600464 
" style="fill:none;stroke:#000000;stroke-width:1.5;"/>
    <path clip-path="url(#p1d57a031b0)" d="M 76.455072 168.573122 
L 76.455072 203.315571 
" style="fill:none;stroke:#000000;stroke-width:1.5;"/>
    <path clip-path="url(#p1d57a031b0)" d="M 81.893861 168.573122 
L 81.893861 59.601386 
" style="fill:none;stroke:#000000;stroke-width:1.5;"/>
    <path clip-path="url(#p1d57a031b0)" d="M 87.332649 168.573122 
L 87.332649 193.388634 
" style="fill:none;stroke:#000000;stroke-width:1.5;"/>
    <path clip-path="url(#p1d57a031b0)" d="M 92.771437 168.573122 
L 92.771437 213.942881 
" style="fill:none;stroke:#000000;stroke-width:1.5;"/>
    <path clip-path="url(#p1d57a031b0)" d="M 98.210226 168.573122 
L 98.210226 198.779782 
" style="fill:none;stroke:#000000;stroke-width:1.5;"/>
    <path clip-path="url(#p1d57a031b0)" d="M 103.649014 168.573122 
L 103.649014 74.591968 
" style="fill:none;stroke:#000000;stroke-width:1.5;"/>
    <path clip-path="url(#p1d57a031b0)" d="M 109.087802 168.573122 
L 109.087802 189.016475 
" style="fill:none;stroke:#000000;stroke-width:1.5;"/>
    <path clip-path="url(#p1d57a031b0)" d="M 114.526591 168.573122 
L 114.526591 207.429682 
" style="fill:none;stroke:#000000;stroke-width:1.5;"/>
    <path clip-path="url(#p1d57a031b0)" d="M 119.965379 168.573122 
L 119.965379 197.418051 
" style="fill:none;stroke:#000000;stroke-width:1.5;"/>
    <path clip-path="url(#p1d57a031b0)" d="M 125.404167 168.573122 
L 125.404167 88.08823 
" style="fill:none;stroke:#000000;stroke-width:1.5;"/>
    <path clip-path="url(#p1d57a031b0)" d="M 130.842956 168.573122 
L 130.842956 188.183471 
" style="fill:none;stroke:#000000;stroke-width:1.5;"/>
    <path clip-path="url(#p1d57a031b0)" d="M 136.281744 168.573122 
L 136.281744 205.021592 
" style="fill:none;stroke:#000000;stroke-width:1.5;"/>
    <path clip-path="url(#p1d57a031b0)" d="M 141.720532 168.573122 
L 141.720532 197.899414 
" style="fill:none;stroke:#000000;stroke-width:1.5;"/>
    <path clip-path="url(#p1d57a031b0)" d="M 147.15932 168.573122 
L 147.15932 93.837512 
" style="fill:none;stroke:#000000;stroke-width:1.5;"/>
    <path clip-path="url(#p1d57a031b0)" d="M 152.598109 168.573122 
L 152.598109 180.005896 
" style="fill:none;stroke:#000000;stroke-width:1.5;"/>
    <path clip-path="url(#p1d57a031b0)" d="M 158.036897 168.573122 
L 158.036897 200.000581 
" style="fill:none;stroke:#000000;stroke-width:1.5;"/>
    <path clip-path="url(#p1d57a031b0)" d="M 163.475685 168.573122 
L 163.475685 195.154369 
" style="fill:none;stroke:#000000;stroke-width:1.5;"/>
    <path clip-path="url(#p1d57a031b0)" d="M 168.914474 168.573122 
L 168.914474 105.953937 
" style="fill:none;stroke:#000000;stroke-width:1.5;"/>
    <path clip-path="url(#p1d57a031b0)" d="M 174.353262 168.573122 
L 174.353262 176.52429 
" style="fill:none;stroke:#000000;stroke-width:1.5;"/>
    <path clip-path="url(#p1d57a031b0)" d="M 179.79205 168.573122 
L 179.79205 195.901601 
" style="fill:none;stroke:#000000;stroke-width:1.5;"/>
    <path clip-path="url(#p1d57a031b0)" d="M 185.230839 168.573122 
L 185.230839 192.465507 
" style="fill:none;stroke:#000000;stroke-width:1.5;"/>
    <path clip-path="url(#p1d57a031b0)" d="M 190.669627 168.573122 
L 190.669627 113.119491 
" style="fill:none;stroke:#000000;stroke-width:1.5;"/>
    <path clip-path="url(#p1d57a031b0)" d="M 196.108415 168.573122 
L 196.108415 172.94944 
" style="fill:none;stroke:#000000;stroke-width:1.5;"/>
    <path clip-path="url(#p1d57a031b0)" d="M 201.547204 168.573122 
L 201.547204 191.379293 
" style="fill:none;stroke:#000000;stroke-width:1.5;"/>
    <path clip-path="url(#p1d57a031b0)" d="M 206.985992 168.573122 
L 206.985992 189.960673 
" style="fill:none;stroke:#000000;stroke-width:1.5;"/>
    <path clip-path="url(#p1d57a031b0)" d="M 212.42478 168.573122 
L 212.42478 123.745429 
" style="fill:none;stroke:#000000;stroke-width:1.5;"/>
    <path clip-path="url(#p1d57a031b0)" d="M 217.863569 168.573122 
L 217.863569 170.837102 
" style="fill:none;stroke:#000000;stroke-width:1.5;"/>
    <path clip-path="url(#p1d57a031b0)" d="M 223.302357 168.573122 
L 223.302357 186.614345 
" style="fill:none;stroke:#000000;stroke-width:1.5;"/>
    <path clip-path="url(#p1d57a031b0)" d="M 228.741145 168.573122 
L 228.741145 184.540589 
" style="fill:none;stroke:#000000;stroke-width:1.5;"/>
    <path clip-path="url(#p1d57a031b0)" d="M 234.179934 168.573122 
L 234.179934 131.491363 
" style="fill:none;stroke:#000000;stroke-width:1.5;"/>
    <path clip-path="url(#p1d57a031b0)" d="M 239.618722 168.573122 
L 239.618722 171.089419 
" style="fill:none;stroke:#000000;stroke-width:1.5;"/>
    <path clip-path="url(#p1d57a031b0)" d="M 245.05751 168.573122 
L 245.05751 183.921586 
" style="fill:none;stroke:#000000;stroke-width:1.5;"/>
    <path clip-path="url(#p1d57a031b0)" d="M 250.496299 168.573122 
L 250.496299 182.131876 
" style="fill:none;stroke:#000000;stroke-width:1.5;"/>
    <path clip-path="url(#p1d57a031b0)" d="M 255.935087 168.573122 
L 255.935087 142.261523 
" style="fill:none;stroke:#000000;stroke-width:1.5;"/>
    <path clip-path="url(#p1d57a031b0)" d="M 261.373875 168.573122 
L 261.373875 170.147838 
" style="fill:none;stroke:#000000;stroke-width:1.5;"/>
    <path clip-path="url(#p1d57a031b0)" d="M 266.812664 168.573122 
L 266.812664 178.375822 
" style="fill:none;stroke:#000000;stroke-width:1.5;"/>
    <path clip-path="url(#p1d57a031b0)" d="M 272.251452 168.573122 
L 272.251452 177.80342 
" style="fill:none;stroke:#000000;stroke-width:1.5;"/>
    <path clip-path="url(#p1d57a031b0)" d="M 277.69024 168.573122 
L 277.69024 155.229628 
" style="fill:none;stroke:#000000;stroke-width:1.5;"/>
    <path clip-path="url(#p1d57a031b0)" d="M 283.129028 168.573122 
L 283.129028 167.866551 
" style="fill:none;stroke:#000000;stroke-width:1.5;"/>
    <path clip-path="url(#p1d57a031b0)" d="M 288.567817 168.573122 
L 288.567817 172.420276 
" style="fill:none;stroke:#000000;stroke-width:1.5;"/>
    <path clip-path="url(#p1d57a031b0)" d="M 294.006605 168.573122 
L 294.006605 173.454251 
" style="fill:none;stroke:#000000;stroke-width:1.5;"/>
   </g>
   <g id="line2d_14">
    <path clip-path="url(#p1d57a031b0)" d="M 48.445312 168.573122 
L 305.7 168.573122 
" style="fill:none;stroke:#1f77b4;stroke-linecap:square;stroke-width:1.5;"/>
   </g>
   <g id="line2d_15">
    <defs>
     <path d="M 0 2.5 
C 0.663008 2.5 1.29895 2.236584 1.767767 1.767767 
C 2.236584 1.29895 2.5 0.663008 2.5 0 
C 2.5 -0.663008 2.236584 -1.29895 1.767767 -1.767767 
C 1.29895 -2.236584 0.663008 -2.5 0 -2.5 
C -0.663008 -2.5 -1.29895 -2.236584 -1.767767 -1.767767 
C -2.236584 -1.29895 -2.5 -0.663008 -2.5 0 
C -2.5 0.663008 -2.236584 1.29895 -1.767767 1.767767 
C -1.29895 2.236584 -0.663008 2.5 0 2.5 
z
" id="ma7defad1df" style="stroke:#1f77b4;"/>
    </defs>
    <g clip-path="url(#p1d57a031b0)">
     <use style="fill:#1f77b4;stroke:#1f77b4;" x="60.138707" xlink:href="#ma7defad1df" y="38.036477"/>
     <use style="fill:#1f77b4;stroke:#1f77b4;" x="65.577496" xlink:href="#ma7defad1df" y="197.451347"/>
     <use style="fill:#1f77b4;stroke:#1f77b4;" x="71.016284" xlink:href="#ma7defad1df" y="220.600464"/>
     <use style="fill:#1f77b4;stroke:#1f77b4;" x="76.455072" xlink:href="#ma7defad1df" y="203.315571"/>
     <use style="fill:#1f77b4;stroke:#1f77b4;" x="81.893861" xlink:href="#ma7defad1df" y="59.601386"/>
     <use style="fill:#1f77b4;stroke:#1f77b4;" x="87.332649" xlink:href="#ma7defad1df" y="193.388634"/>
     <use style="fill:#1f77b4;stroke:#1f77b4;" x="92.771437" xlink:href="#ma7defad1df" y="213.942881"/>
     <use style="fill:#1f77b4;stroke:#1f77b4;" x="98.210226" xlink:href="#ma7defad1df" y="198.779782"/>
     <use style="fill:#1f77b4;stroke:#1f77b4;" x="103.649014" xlink:href="#ma7defad1df" y="74.591968"/>
     <use style="fill:#1f77b4;stroke:#1f77b4;" x="109.087802" xlink:href="#ma7defad1df" y="189.016475"/>
     <use style="fill:#1f77b4;stroke:#1f77b4;" x="114.526591" xlink:href="#ma7defad1df" y="207.429682"/>
     <use style="fill:#1f77b4;stroke:#1f77b4;" x="119.965379" xlink:href="#ma7defad1df" y="197.418051"/>
     <use style="fill:#1f77b4;stroke:#1f77b4;" x="125.404167" xlink:href="#ma7defad1df" y="88.08823"/>
     <use style="fill:#1f77b4;stroke:#1f77b4;" x="130.842956" xlink:href="#ma7defad1df" y="188.183471"/>
     <use style="fill:#1f77b4;stroke:#1f77b4;" x="136.281744" xlink:href="#ma7defad1df" y="205.021592"/>
     <use style="fill:#1f77b4;stroke:#1f77b4;" x="141.720532" xlink:href="#ma7defad1df" y="197.899414"/>
     <use style="fill:#1f77b4;stroke:#1f77b4;" x="147.15932" xlink:href="#ma7defad1df" y="93.837512"/>
     <use style="fill:#1f77b4;stroke:#1f77b4;" x="152.598109" xlink:href="#ma7defad1df" y="180.005896"/>
     <use style="fill:#1f77b4;stroke:#1f77b4;" x="158.036897" xlink:href="#ma7defad1df" y="200.000581"/>
     <use style="fill:#1f77b4;stroke:#1f77b4;" x="163.475685" xlink:href="#ma7defad1df" y="195.154369"/>
     <use style="fill:#1f77b4;stroke:#1f77b4;" x="168.914474" xlink:href="#ma7defad1df" y="105.953937"/>
     <use style="fill:#1f77b4;stroke:#1f77b4;" x="174.353262" xlink:href="#ma7defad1df" y="176.52429"/>
     <use style="fill:#1f77b4;stroke:#1f77b4;" x="179.79205" xlink:href="#ma7defad1df" y="195.901601"/>
     <use style="fill:#1f77b4;stroke:#1f77b4;" x="185.230839" xlink:href="#ma7defad1df" y="192.465507"/>
     <use style="fill:#1f77b4;stroke:#1f77b4;" x="190.669627" xlink:href="#ma7defad1df" y="113.119491"/>
     <use style="fill:#1f77b4;stroke:#1f77b4;" x="196.108415" xlink:href="#ma7defad1df" y="172.94944"/>
     <use style="fill:#1f77b4;stroke:#1f77b4;" x="201.547204" xlink:href="#ma7defad1df" y="191.379293"/>
     <use style="fill:#1f77b4;stroke:#1f77b4;" x="206.985992" xlink:href="#ma7defad1df" y="189.960673"/>
     <use style="fill:#1f77b4;stroke:#1f77b4;" x="212.42478" xlink:href="#ma7defad1df" y="123.745429"/>
     <use style="fill:#1f77b4;stroke:#1f77b4;" x="217.863569" xlink:href="#ma7defad1df" y="170.837102"/>
     <use style="fill:#1f77b4;stroke:#1f77b4;" x="223.302357" xlink:href="#ma7defad1df" y="186.614345"/>
     <use style="fill:#1f77b4;stroke:#1f77b4;" x="228.741145" xlink:href="#ma7defad1df" y="184.540589"/>
     <use style="fill:#1f77b4;stroke:#1f77b4;" x="234.179934" xlink:href="#ma7defad1df" y="131.491363"/>
     <use style="fill:#1f77b4;stroke:#1f77b4;" x="239.618722" xlink:href="#ma7defad1df" y="171.089419"/>
     <use style="fill:#1f77b4;stroke:#1f77b4;" x="245.05751" xlink:href="#ma7defad1df" y="183.921586"/>
     <use style="fill:#1f77b4;stroke:#1f77b4;" x="250.496299" xlink:href="#ma7defad1df" y="182.131876"/>
     <use style="fill:#1f77b4;stroke:#1f77b4;" x="255.935087" xlink:href="#ma7defad1df" y="142.261523"/>
     <use style="fill:#1f77b4;stroke:#1f77b4;" x="261.373875" xlink:href="#ma7defad1df" y="170.147838"/>
     <use style="fill:#1f77b4;stroke:#1f77b4;" x="266.812664" xlink:href="#ma7defad1df" y="178.375822"/>
     <use style="fill:#1f77b4;stroke:#1f77b4;" x="272.251452" xlink:href="#ma7defad1df" y="177.80342"/>
     <use style="fill:#1f77b4;stroke:#1f77b4;" x="277.69024" xlink:href="#ma7defad1df" y="155.229628"/>
     <use style="fill:#1f77b4;stroke:#1f77b4;" x="283.129028" xlink:href="#ma7defad1df" y="167.866551"/>
     <use style="fill:#1f77b4;stroke:#1f77b4;" x="288.567817" xlink:href="#ma7defad1df" y="172.420276"/>
     <use style="fill:#1f77b4;stroke:#1f77b4;" x="294.006605" xlink:href="#ma7defad1df" y="173.454251"/>
    </g>
   </g>
   <g id="patch_3">
    <path d="M 48.445312 292.521875 
L 48.445312 25.918125 
" style="fill:none;stroke:#000000;stroke-linecap:square;stroke-linejoin:miter;stroke-width:0.8;"/>
   </g>
   <g id="patch_4">
    <path d="M 305.7 292.521875 
L 305.7 25.918125 
" style="fill:none;stroke:#000000;stroke-linecap:square;stroke-linejoin:miter;stroke-width:0.8;"/>
   </g>
   <g id="patch_5">
    <path d="M 48.445312 292.521875 
L 305.7 292.521875 
" style="fill:none;stroke:#000000;stroke-linecap:square;stroke-linejoin:miter;stroke-width:0.8;"/>
   </g>
   <g id="patch_6">
    <path d="M 48.445312 25.918125 
L 305.7 25.918125 
" style="fill:none;stroke:#000000;stroke-linecap:square;stroke-linejoin:miter;stroke-width:0.8;"/>
   </g>
   <g id="text_14">
    <!-- Autocorrelation -->
    <defs>
     <path d="M 34.1875 63.1875 
L 20.796875 26.90625 
L 47.609375 26.90625 
z
M 28.609375 72.90625 
L 39.796875 72.90625 
L 67.578125 0 
L 57.328125 0 
L 50.6875 18.703125 
L 17.828125 18.703125 
L 11.1875 0 
L 0.78125 0 
z
" id="DejaVuSans-41"/>
     <path d="M 8.5 21.578125 
L 8.5 54.6875 
L 17.484375 54.6875 
L 17.484375 21.921875 
Q 17.484375 14.15625 20.5 10.265625 
Q 23.53125 6.390625 29.59375 6.390625 
Q 36.859375 6.390625 41.078125 11.03125 
Q 45.3125 15.671875 45.3125 23.6875 
L 45.3125 54.6875 
L 54.296875 54.6875 
L 54.296875 0 
L 45.3125 0 
L 45.3125 8.40625 
Q 42.046875 3.421875 37.71875 1 
Q 33.40625 -1.421875 27.6875 -1.421875 
Q 18.265625 -1.421875 13.375 4.4375 
Q 8.5 10.296875 8.5 21.578125 
M 31.109375 56 
z
" id="DejaVuSans-75"/>
     <path d="M 18.3125 70.21875 
L 18.3125 54.6875 
L 36.8125 54.6875 
L 36.8125 47.703125 
L 18.3125 47.703125 
L 18.3125 18.015625 
Q 18.3125 11.328125 20.140625 9.421875 
Q 21.96875 7.515625 27.59375 7.515625 
L 36.8125 7.515625 
L 36.8125 0 
L 27.59375 0 
Q 17.1875 0 13.234375 3.875 
Q 9.28125 7.765625 9.28125 18.015625 
L 9.28125 47.703125 
L 2.6875 47.703125 
L 2.6875 54.6875 
L 9.28125 54.6875 
L 9.28125 70.21875 
z
" id="DejaVuSans-74"/>
     <path d="M 30.609375 48.390625 
Q 23.390625 48.390625 19.1875 42.75 
Q 14.984375 37.109375 14.984375 27.296875 
Q 14.984375 17.484375 19.15625 11.84375 
Q 23.34375 6.203125 30.609375 6.203125 
Q 37.796875 6.203125 41.984375 11.859375 
Q 46.1875 17.53125 46.1875 27.296875 
Q 46.1875 37.015625 41.984375 42.703125 
Q 37.796875 48.390625 30.609375 48.390625 
M 30.609375 56 
Q 42.328125 56 49.015625 48.375 
Q 55.71875 40.765625 55.71875 27.296875 
Q 55.71875 13.875 49.015625 6.21875 
Q 42.328125 -1.421875 30.609375 -1.421875 
Q 18.84375 -1.421875 12.171875 6.21875 
Q 5.515625 13.875 5.515625 27.296875 
Q 5.515625 40.765625 12.171875 48.375 
Q 18.84375 56 30.609375 56 
" id="DejaVuSans-6f"/>
     <path d="M 48.78125 52.59375 
L 48.78125 44.1875 
Q 44.96875 46.296875 41.140625 47.34375 
Q 37.3125 48.390625 33.40625 48.390625 
Q 24.65625 48.390625 19.8125 42.84375 
Q 14.984375 37.3125 14.984375 27.296875 
Q 14.984375 17.28125 19.8125 11.734375 
Q 24.65625 6.203125 33.40625 6.203125 
Q 37.3125 6.203125 41.140625 7.25 
Q 44.96875 8.296875 48.78125 10.40625 
L 48.78125 2.09375 
Q 45.015625 0.34375 40.984375 -0.53125 
Q 36.96875 -1.421875 32.421875 -1.421875 
Q 20.0625 -1.421875 12.78125 6.34375 
Q 5.515625 14.109375 5.515625 27.296875 
Q 5.515625 40.671875 12.859375 48.328125 
Q 20.21875 56 33.015625 56 
Q 37.15625 56 41.109375 55.140625 
Q 45.0625 54.296875 48.78125 52.59375 
" id="DejaVuSans-63"/>
     <path d="M 41.109375 46.296875 
Q 39.59375 47.171875 37.8125 47.578125 
Q 36.03125 48 33.890625 48 
Q 26.265625 48 22.1875 43.046875 
Q 18.109375 38.09375 18.109375 28.8125 
L 18.109375 0 
L 9.078125 0 
L 9.078125 54.6875 
L 18.109375 54.6875 
L 18.109375 46.1875 
Q 20.953125 51.171875 25.484375 53.578125 
Q 30.03125 56 36.53125 56 
Q 37.453125 56 38.578125 55.875 
Q 39.703125 55.765625 41.0625 55.515625 
z
" id="DejaVuSans-72"/>
     <path d="M 56.203125 29.59375 
L 56.203125 25.203125 
L 14.890625 25.203125 
Q 15.484375 15.921875 20.484375 11.0625 
Q 25.484375 6.203125 34.421875 6.203125 
Q 39.59375 6.203125 44.453125 7.46875 
Q 49.3125 8.734375 54.109375 11.28125 
L 54.109375 2.78125 
Q 49.265625 0.734375 44.1875 -0.34375 
Q 39.109375 -1.421875 33.890625 -1.421875 
Q 20.796875 -1.421875 13.15625 6.1875 
Q 5.515625 13.8125 5.515625 26.8125 
Q 5.515625 40.234375 12.765625 48.109375 
Q 20.015625 56 32.328125 56 
Q 43.359375 56 49.78125 48.890625 
Q 56.203125 41.796875 56.203125 29.59375 
M 47.21875 32.234375 
Q 47.125 39.59375 43.09375 43.984375 
Q 39.0625 48.390625 32.421875 48.390625 
Q 24.90625 48.390625 20.390625 44.140625 
Q 15.875 39.890625 15.1875 32.171875 
z
" id="DejaVuSans-65"/>
     <path d="M 9.421875 75.984375 
L 18.40625 75.984375 
L 18.40625 0 
L 9.421875 0 
z
" id="DejaVuSans-6c"/>
     <path d="M 34.28125 27.484375 
Q 23.390625 27.484375 19.1875 25 
Q 14.984375 22.515625 14.984375 16.5 
Q 14.984375 11.71875 18.140625 8.90625 
Q 21.296875 6.109375 26.703125 6.109375 
Q 34.1875 6.109375 38.703125 11.40625 
Q 43.21875 16.703125 43.21875 25.484375 
L 43.21875 27.484375 
z
M 52.203125 31.203125 
L 52.203125 0 
L 43.21875 0 
L 43.21875 8.296875 
Q 40.140625 3.328125 35.546875 0.953125 
Q 30.953125 -1.421875 24.3125 -1.421875 
Q 15.921875 -1.421875 10.953125 3.296875 
Q 6 8.015625 6 15.921875 
Q 6 25.140625 12.171875 29.828125 
Q 18.359375 34.515625 30.609375 34.515625 
L 43.21875 34.515625 
L 43.21875 35.40625 
Q 43.21875 41.609375 39.140625 45 
Q 35.0625 48.390625 27.6875 48.390625 
Q 23 48.390625 18.546875 47.265625 
Q 14.109375 46.140625 10.015625 43.890625 
L 10.015625 52.203125 
Q 14.9375 54.109375 19.578125 55.046875 
Q 24.21875 56 28.609375 56 
Q 40.484375 56 46.34375 49.84375 
Q 52.203125 43.703125 52.203125 31.203125 
" id="DejaVuSans-61"/>
     <path d="M 9.421875 54.6875 
L 18.40625 54.6875 
L 18.40625 0 
L 9.421875 0 
z
M 9.421875 75.984375 
L 18.40625 75.984375 
L 18.40625 64.59375 
L 9.421875 64.59375 
z
" id="DejaVuSans-69"/>
     <path d="M 54.890625 33.015625 
L 54.890625 0 
L 45.90625 0 
L 45.90625 32.71875 
Q 45.90625 40.484375 42.875 44.328125 
Q 39.84375 48.1875 33.796875 48.1875 
Q 26.515625 48.1875 22.3125 43.546875 
Q 18.109375 38.921875 18.109375 30.90625 
L 18.109375 0 
L 9.078125 0 
L 9.078125 54.6875 
L 18.109375 54.6875 
L 18.109375 46.1875 
Q 21.34375 51.125 25.703125 53.5625 
Q 30.078125 56 35.796875 56 
Q 45.21875 56 50.046875 50.171875 
Q 54.890625 44.34375 54.890625 33.015625 
" id="DejaVuSans-6e"/>
    </defs>
    <g transform="translate(130.713281 19.918125)scale(0.12 -0.12)">
     <use xlink:href="#DejaVuSans-41"/>
     <use x="68.408203" xlink:href="#DejaVuSans-75"/>
     <use x="131.787109" xlink:href="#DejaVuSans-74"/>
     <use x="170.996094" xlink:href="#DejaVuSans-6f"/>
     <use x="232.177734" xlink:href="#DejaVuSans-63"/>
     <use x="287.158203" xlink:href="#DejaVuSans-6f"/>
     <use x="348.339844" xlink:href="#DejaVuSans-72"/>
     <use x="389.4375" xlink:href="#DejaVuSans-72"/>
     <use x="430.519531" xlink:href="#DejaVuSans-65"/>
     <use x="492.042969" xlink:href="#DejaVuSans-6c"/>
     <use x="519.826172" xlink:href="#DejaVuSans-61"/>
     <use x="581.105469" xlink:href="#DejaVuSans-74"/>
     <use x="620.314453" xlink:href="#DejaVuSans-69"/>
     <use x="648.097656" xlink:href="#DejaVuSans-6f"/>
     <use x="709.279297" xlink:href="#DejaVuSans-6e"/>
    </g>
   </g>
  </g>
 </g>
 <defs>
  <clipPath id="p1d57a031b0">
   <rect height="266.60375" width="257.254687" x="48.445312" y="25.918125"/>
  </clipPath>
 </defs>
</svg>
