<?xml version="1.0" encoding="UTF-8" standalone="no"?>
<svg
   xmlns:dc="http://purl.org/dc/elements/1.1/"
   xmlns:cc="http://creativecommons.org/ns#"
   xmlns:rdf="http://www.w3.org/1999/02/22-rdf-syntax-ns#"
   xmlns:svg="http://www.w3.org/2000/svg"
   xmlns="http://www.w3.org/2000/svg"
   xmlns:xlink="http://www.w3.org/1999/xlink"
   xmlns:sodipodi="http://sodipodi.sourceforge.net/DTD/sodipodi-0.dtd"
   xmlns:inkscape="http://www.inkscape.org/namespaces/inkscape"
   width="450.31"
   height="367.97003"
   viewBox="0 0 450.31 367.97003"
   id="svg2"
   version="1.1"
   inkscape:version="0.48.4 r9939"
   sodipodi:docname="parts-of-parabola.svg">
  <metadata
     id="metadata264">
    <rdf:RDF>
      <cc:Work
         rdf:about="">
        <dc:format>image/svg+xml</dc:format>
        <dc:type
           rdf:resource="http://purl.org/dc/dcmitype/StillImage" />
        <dc:title>Gnuplot</dc:title>
      </cc:Work>
    </rdf:RDF>
  </metadata>
  <defs
     id="defs262">
    <defs
       id="defs11">
      <circle
         r="0.5"
         id="gpDot"
         cx="0"
         cy="0"
         sodipodi:cx="0"
         sodipodi:cy="0"
         sodipodi:rx="0.5"
         sodipodi:ry="0.5"
         style="stroke-width:0.5" />
      <path
         d="M -1,0 H 1 M 0,-1 v 2"
         id="gpPt0"
         inkscape:connector-curvature="0"
         style="stroke:currentColor;stroke-width:0.222" />
      <path
         d="M -1,-1 1,1 M 1,-1 -1,1"
         id="gpPt1"
         inkscape:connector-curvature="0"
         style="stroke:currentColor;stroke-width:0.222" />
      <path
         d="M -1,0 1,0 M 0,-1 0,1 m -1,-2 2,2 m -2,0 2,-2"
         id="gpPt2"
         inkscape:connector-curvature="0"
         style="stroke:currentColor;stroke-width:0.222" />
      <rect
         height="2"
         width="2"
         y="-1"
         x="-1"
         id="gpPt3"
         style="stroke:currentColor;stroke-width:0.222" />
      <rect
         height="2"
         width="2"
         y="-1"
         x="-1"
         id="gpPt4"
         style="fill:currentColor;stroke:currentColor;stroke-width:0.222" />
      <circle
         r="1"
         cy="0"
         cx="0"
         id="gpPt5"
         sodipodi:cx="0"
         sodipodi:cy="0"
         sodipodi:rx="1"
         sodipodi:ry="1"
         style="stroke:currentColor;stroke-width:0.222" />
      <use
         id="gpPt6"
         xlink:href="#gpPt5"
         style="fill:currentColor;stroke:none"
         x="0"
         y="0"
         width="600"
         height="480" />
      <path
         d="m 0,-1.33 -1.33,2 2.66,0 z"
         id="gpPt7"
         inkscape:connector-curvature="0"
         style="stroke:currentColor;stroke-width:0.222" />
      <use
         id="gpPt8"
         xlink:href="#gpPt7"
         style="fill:currentColor;stroke:none"
         x="0"
         y="0"
         width="600"
         height="480" />
      <use
         transform="scale(-1,-1)"
         id="gpPt9"
         xlink:href="#gpPt7"
         style="stroke:currentColor"
         x="0"
         y="0"
         width="600"
         height="480" />
      <use
         id="gpPt10"
         xlink:href="#gpPt9"
         style="fill:currentColor;stroke:none"
         x="0"
         y="0"
         width="600"
         height="480" />
      <use
         transform="matrix(0.70710678,0.70710678,-0.70710678,0.70710678,0,0)"
         id="gpPt11"
         xlink:href="#gpPt3"
         style="stroke:currentColor"
         x="0"
         y="0"
         width="600"
         height="480" />
      <use
         id="gpPt12"
         xlink:href="#gpPt11"
         style="fill:currentColor;stroke:none"
         x="0"
         y="0"
         width="600"
         height="480" />
    </defs>
  </defs>
  <sodipodi:namedview
     pagecolor="#ffffff"
     bordercolor="#666666"
     borderopacity="1"
     objecttolerance="10"
     gridtolerance="10"
     guidetolerance="10"
     inkscape:pageopacity="0"
     inkscape:pageshadow="2"
     inkscape:window-width="1135"
     inkscape:window-height="764"
     id="namedview260"
     showgrid="false"
     inkscape:zoom="1.0426"
     inkscape:cx="232.63352"
     inkscape:cy="183.38935"
     inkscape:window-x="52"
     inkscape:window-y="0"
     inkscape:window-maximized="0"
     inkscape:current-layer="svg2"
     fit-margin-top="10"
     fit-margin-left="10"
     fit-margin-right="10"
     fit-margin-bottom="10" />
  <title
     id="title4">Gnuplot</title>
  <desc
     id="desc6">Produced by GNUPLOT 4.6 patchlevel 3 </desc>
  <path
     style="fill:none;stroke:#000000;stroke-width:1.5;stroke-linecap:butt;stroke-linejoin:miter;stroke-miterlimit:4;stroke-opacity:1;stroke-dasharray:none"
     d="m 368.17563,293.98935 11.18555,0 0,11.65359"
     id="path4936"
     inkscape:connector-curvature="0"
     sodipodi:nodetypes="ccc" />
  <path
     class="gridline"
     d="m 11.5,252.47002 427.3,0 h 0.01"
     id="path69"
     inkscape:connector-curvature="0"
     style="color:#808080;fill:none;stroke:#808080;stroke-width:1;stroke-linecap:butt;stroke-linejoin:miter;stroke-dasharray:2, 4" />
  <path
     class="gridline"
     d="m 11.5,198.97002 427.3,0 h 0.01"
     id="path81"
     inkscape:connector-curvature="0"
     style="color:#808080;fill:none;stroke:#808080;stroke-width:1;stroke-linecap:butt;stroke-linejoin:miter;stroke-dasharray:2, 4" />
  <path
     class="gridline"
     d="m 11.5,145.57002 427.3,0 h 0.01"
     id="path93"
     inkscape:connector-curvature="0"
     style="color:#808080;fill:none;stroke:#808080;stroke-width:1;stroke-linecap:butt;stroke-linejoin:miter;stroke-dasharray:2, 4" />
  <path
     class="gridline"
     d="m 225.2,356.47002 0,-316.899995"
     id="path189"
     inkscape:connector-curvature="0"
     style="color:#808080;fill:none;stroke:#823fc3;stroke-width:3;stroke-linecap:butt;stroke-linejoin:miter;stroke-miterlimit:4;stroke-opacity:1;stroke-dasharray:none;stroke-dashoffset:0"
     sodipodi:nodetypes="cc" />
  <path
     class="gridline"
     d="m 11.5,92.170025 427.3,0 h 0.01"
     id="path105"
     inkscape:connector-curvature="0"
     style="color:#808080;fill:none;stroke:#808080;stroke-width:1;stroke-linecap:butt;stroke-linejoin:miter;stroke-dasharray:2, 4" />
  <path
     class="gridline"
     d="m 64.9,354.47002 0,-312.499995"
     id="path153"
     inkscape:connector-curvature="0"
     style="color:#808080;fill:none;stroke:#808080;stroke-width:1;stroke-linecap:butt;stroke-linejoin:miter;stroke-dasharray:2, 4"
     sodipodi:nodetypes="cc" />
  <path
     class="gridline"
     d="m 118.3,354.47002 0,-312.499995"
     id="path165"
     inkscape:connector-curvature="0"
     style="color:#808080;fill:none;stroke:#808080;stroke-width:1;stroke-linecap:butt;stroke-linejoin:miter;stroke-dasharray:2, 4"
     sodipodi:nodetypes="cc" />
  <path
     class="gridline"
     d="m 171.7,354.47002 0,-312.499995"
     id="path177"
     inkscape:connector-curvature="0"
     style="color:#808080;fill:none;stroke:#808080;stroke-width:1;stroke-linecap:butt;stroke-linejoin:miter;stroke-dasharray:2, 4"
     sodipodi:nodetypes="cc" />
  <path
     class="gridline"
     d="m 278.6,354.47002 0,-312.499995"
     id="path201"
     inkscape:connector-curvature="0"
     style="color:#808080;fill:none;stroke:#808080;stroke-width:1;stroke-linecap:butt;stroke-linejoin:miter;stroke-dasharray:2, 4"
     sodipodi:nodetypes="cc" />
  <path
     class="gridline"
     d="M 332,354.47002 332,41.970025"
     id="path213"
     inkscape:connector-curvature="0"
     style="color:#808080;fill:none;stroke:#808080;stroke-width:1;stroke-linecap:butt;stroke-linejoin:miter;stroke-dasharray:2, 4"
     sodipodi:nodetypes="cc" />
  <path
     class="gridline"
     d="m 385.4,354.47002 0,-312.499995"
     id="path225"
     inkscape:connector-curvature="0"
     style="color:#808080;fill:none;stroke:#808080;stroke-width:1;stroke-linecap:butt;stroke-linejoin:miter;stroke-dasharray:2, 4"
     sodipodi:nodetypes="cc" />
  <path
     style="fill:none;stroke:#fc4acc;stroke-width:2;stroke-linecap:butt;stroke-linejoin:miter;stroke-miterlimit:4;stroke-opacity:1;stroke-dasharray:none"
     d="m 225.20565,198.99372 142.81497,-41.95609 0,148.90439"
     id="path4242"
     inkscape:connector-curvature="0"
     sodipodi:nodetypes="ccc" />
  <path
     style="color:#808080;fill:none;stroke:#f0a356;stroke-width:3;stroke-linecap:butt;stroke-linejoin:miter;stroke-miterlimit:4;stroke-opacity:1;stroke-dasharray:none;stroke-dashoffset:0"
     inkscape:connector-curvature="0"
     id="path4237"
     d="m 118.3,198.97002 213.7,0"
     class="gridline"
     sodipodi:nodetypes="cc" />
  <path
     style="color:#ff0000;fill:none;stroke:#0050ff;stroke-width:3;stroke-linecap:butt;stroke-linejoin:miter;stroke-miterlimit:4;stroke-opacity:1;stroke-dasharray:none"
     d="m 11.5,38.770025 c 8.08492,16.240602 16.60042,32.26731 25.5423,48.05166 3.83387,6.78436 7.81835,13.483525 11.8161,20.171455 2.18344,3.6108 4.42336,7.18737 6.66268,10.76309 4.0536,6.41673 8.19599,12.78141 12.46035,19.06244 3.61246,5.26606 7.23123,10.52999 11.03485,15.66033 5.54402,7.60445 11.32789,15.03341 17.31574,22.29209 8.54995,10.3111 17.61546,20.20593 27.31002,29.45258 3.62918,3.47911 7.41596,6.79365 11.23713,10.05864 4.20849,3.5833 8.57757,6.97305 13.0356,10.23637 3.65869,2.65162 7.42059,5.16759 11.26118,7.54833 8.49403,5.23911 17.46285,9.73373 26.82788,13.19255 9.38003,3.42888 19.18343,5.77009 29.13273,6.70907 3.83595,0.30917 7.6875,0.54592 11.53539,0.47007 6.51121,-0.17809 13.02603,-0.74368 19.41245,-2.06423 10.20569,-2.00646 20.1274,-5.37384 29.49802,-9.87973 9.39473,-4.35104 18.22815,-9.83841 26.64315,-15.84912 7.75052,-5.61759 15.09226,-11.77684 22.1372,-18.25239 7.50847,-7.02487 14.65858,-14.42733 21.47127,-22.12857 7.03908,-7.92283 13.68062,-16.18792 20.11299,-24.60685 3.06141,-4.03552 6.03215,-8.14083 9.00832,-12.2369 8.19255,-11.54186 15.97171,-23.37602 23.41076,-35.41592 5.41774,-8.79242 10.65682,-17.699285 15.73986,-26.691415 5.10479,-9.02401 10.04339,-18.141038 14.87062,-27.316129 3.32942,-6.383271 6.62351,-12.784333 9.83341,-19.227421"
     id="path254"
     inkscape:connector-curvature="0" />
  <path
     class="gridline"
     d="m 11.5,305.87002 427.3,0 h 0.01"
     id="path57"
     inkscape:connector-curvature="0"
     style="color:#808080;fill:none;stroke:#34602f;stroke-width:3;stroke-linecap:butt;stroke-linejoin:miter;stroke-miterlimit:4;stroke-opacity:1;stroke-dasharray:none;stroke-dashoffset:0" />
  <path
     style="fill:none;stroke:#000000;stroke-width:1.5;stroke-linecap:butt;stroke-linejoin:miter;stroke-miterlimit:4;stroke-opacity:1;stroke-dasharray:none"
     d="m 360.55248,231.89278 14.89044,0"
     id="path4242-6"
     inkscape:connector-curvature="0"
     sodipodi:nodetypes="cc" />
  <path
     style="fill:none;stroke:#000000;stroke-width:1.5;stroke-linecap:butt;stroke-linejoin:miter;stroke-miterlimit:4;stroke-opacity:1;stroke-dasharray:none"
     d="m 300.85549,184.49385 -4.19561,-14.2815"
     id="path4242-6-2"
     inkscape:connector-curvature="0"
     sodipodi:nodetypes="cc" />
  <path
     sodipodi:type="arc"
     style="fill:#000000;fill-opacity:1;stroke:none"
     id="path4938"
     sodipodi:cx="306.38354"
     sodipodi:cy="230.5441"
     sodipodi:rx="3.3062973"
     sodipodi:ry="3.1791322"
     d="m 309.68984,230.5441 a 3.3062973,3.1791322 0 1 1 -6.61259,0 3.3062973,3.1791322 0 1 1 6.61259,0 z"
     transform="matrix(1.5122657,0,0,1.5727562,-238.13333,-163.61964)" />
  <path
     sodipodi:type="arc"
     style="fill:#000000;fill-opacity:1;stroke:none"
     id="path4938-9"
     sodipodi:cx="306.38354"
     sodipodi:cy="230.5441"
     sodipodi:rx="3.3062973"
     sodipodi:ry="3.1791322"
     d="m 309.68984,230.5441 a 3.3062973,3.1791322 0 1 1 -6.61259,0 3.3062973,3.1791322 0 1 1 6.61259,0 z"
     transform="matrix(1.5122657,0,0,1.5727562,-238.13333,-110.11963)" />
  <text
     xml:space="preserve"
     style="font-size:13px;font-style:normal;font-variant:normal;font-weight:normal;font-stretch:normal;line-height:125%;letter-spacing:0px;word-spacing:0px;fill:#000000;fill-opacity:1;stroke:none;font-family:DejaVu Sans;-inkscape-font-specification:Sans"
     x="138.11992"
     y="25.195312"
     id="text4987"
     sodipodi:linespacing="125%"><tspan
       sodipodi:role="line"
       id="tspan4989"
       x="138.11992"
       y="25.195312"
       style="font-size:20px">axis of symmetry</tspan></text>
  <text
     xml:space="preserve"
     style="font-size:13px;font-style:normal;font-variant:normal;font-weight:normal;font-stretch:normal;line-height:125%;letter-spacing:0px;word-spacing:0px;fill:#000000;fill-opacity:1;stroke:none;font-family:DejaVu Sans;-inkscape-font-specification:Sans"
     x="51.66153"
     y="294.12888"
     id="text4987-1"
     sodipodi:linespacing="125%"><tspan
       sodipodi:role="line"
       id="tspan4989-2"
       x="51.66153"
       y="294.12888"
       style="font-size:20px">directrix</tspan></text>
  <text
     xml:space="preserve"
     style="font-size:13px;font-style:normal;font-variant:normal;font-weight:normal;font-stretch:normal;text-align:start;line-height:125%;letter-spacing:0px;word-spacing:0px;text-anchor:start;fill:#000000;fill-opacity:1;stroke:none;font-family:DejaVu Sans;-inkscape-font-specification:Sans"
     x="137.74164"
     y="166.93451"
     id="text4987-2"
     sodipodi:linespacing="125%"><tspan
       sodipodi:role="line"
       id="tspan4989-6"
       x="137.74164"
       y="166.93451"
       style="font-size:20px;text-align:start;text-anchor:start">  latus</tspan><tspan
       sodipodi:role="line"
       x="137.74164"
       y="191.93451"
       style="font-size:20px;text-align:start;text-anchor:start"
       id="tspan5051">rectum</tspan></text>
  <text
     xml:space="preserve"
     style="font-size:13px;font-style:normal;font-variant:normal;font-weight:normal;font-stretch:normal;line-height:125%;letter-spacing:0px;word-spacing:0px;fill:#000000;fill-opacity:1;stroke:none;font-family:DejaVu Sans;-inkscape-font-specification:Sans"
     x="231.88156"
     y="222.07558"
     id="text4987-7"
     sodipodi:linespacing="125%"><tspan
       sodipodi:role="line"
       id="tspan4989-4"
       x="231.88156"
       y="222.07558"
       style="font-size:20px">focus</tspan></text>
  <text
     xml:space="preserve"
     style="font-size:13px;font-style:normal;font-variant:normal;font-weight:normal;font-stretch:normal;line-height:125%;letter-spacing:0px;word-spacing:0px;fill:#000000;fill-opacity:1;stroke:none;font-family:DejaVu Sans;-inkscape-font-specification:Sans"
     x="233.05939"
     y="277.72589"
     id="text4987-7-4"
     sodipodi:linespacing="125%"><tspan
       sodipodi:role="line"
       id="tspan4989-4-4"
       x="233.05939"
       y="277.72589"
       style="font-size:20px">vertex</tspan></text>
</svg>
